<mxfile host="app.diagrams.net" modified="2023-11-25T20:14:08.743Z" agent="Mozilla/5.0 (Macintosh; Intel Mac OS X 10_15_7) AppleWebKit/537.36 (KHTML, like Gecko) Chrome/119.0.0.0 Safari/537.36" etag="iZSZMNNzVTeAYuo5pbuG" version="22.1.4" type="device">
  <diagram id="sy63P7heU8LwyA4iAIEX" name="Seite-2">
    <mxGraphModel dx="1434" dy="775" grid="0" gridSize="10" guides="1" tooltips="1" connect="1" arrows="1" fold="1" page="1" pageScale="1" pageWidth="1169" pageHeight="827" math="0" shadow="0">
      <root>
        <mxCell id="0" />
        <mxCell id="1" parent="0" />
        <mxCell id="0fUxBGmzUrygV9SsRn34-7" value="" style="group" parent="1" vertex="1" connectable="0">
          <mxGeometry x="464" y="252" width="441" height="203.5" as="geometry" />
        </mxCell>
        <mxCell id="0fUxBGmzUrygV9SsRn34-3" value="" style="rounded=0;whiteSpace=wrap;html=1;fillColor=#f8cecc;strokeColor=none;shadow=0;" parent="0fUxBGmzUrygV9SsRn34-7" vertex="1">
          <mxGeometry y="0.5" width="120" height="71" as="geometry" />
        </mxCell>
        <mxCell id="0fUxBGmzUrygV9SsRn34-4" value="" style="rounded=0;whiteSpace=wrap;html=1;fillColor=#f8cecc;strokeColor=none;shadow=0;" parent="0fUxBGmzUrygV9SsRn34-7" vertex="1">
          <mxGeometry y="131.5" width="120" height="71" as="geometry" />
        </mxCell>
        <mxCell id="0fUxBGmzUrygV9SsRn34-5" value="" style="rounded=0;whiteSpace=wrap;html=1;rotation=-90;fillColor=#f8cecc;strokeColor=none;shadow=0;" parent="0fUxBGmzUrygV9SsRn34-7" vertex="1">
          <mxGeometry x="52.5" y="66" width="203" height="71" as="geometry" />
        </mxCell>
        <mxCell id="0fUxBGmzUrygV9SsRn34-6" value="" style="rounded=0;whiteSpace=wrap;html=1;fillColor=#f8cecc;strokeColor=none;shadow=0;" parent="0fUxBGmzUrygV9SsRn34-7" vertex="1">
          <mxGeometry x="188" y="157.5" width="120" height="45" as="geometry" />
        </mxCell>
        <mxCell id="0fUxBGmzUrygV9SsRn34-8" value="" style="group" parent="1" vertex="1" connectable="0">
          <mxGeometry x="272.5" y="251.5" width="179.5" height="203" as="geometry" />
        </mxCell>
        <mxCell id="0fUxBGmzUrygV9SsRn34-1" value="" style="rounded=0;whiteSpace=wrap;html=1;rotation=-90;shadow=0;fillColor=#dae8fc;strokeColor=none;" parent="0fUxBGmzUrygV9SsRn34-8" vertex="1">
          <mxGeometry x="-71.5" y="71.5" width="203" height="60" as="geometry" />
        </mxCell>
        <mxCell id="0fUxBGmzUrygV9SsRn34-2" value="" style="rounded=0;whiteSpace=wrap;html=1;shadow=0;fillColor=#dae8fc;strokeColor=none;" parent="0fUxBGmzUrygV9SsRn34-8" vertex="1">
          <mxGeometry x="59.5" y="71.5" width="120" height="60" as="geometry" />
        </mxCell>
        <mxCell id="0fUxBGmzUrygV9SsRn34-13" value="" style="group" parent="1" vertex="1" connectable="0">
          <mxGeometry x="776" y="250.5" width="176" height="204" as="geometry" />
        </mxCell>
        <mxCell id="0fUxBGmzUrygV9SsRn34-11" value="" style="rounded=0;whiteSpace=wrap;html=1;rotation=-90;fillColor=#d5e8d4;strokeColor=none;" parent="0fUxBGmzUrygV9SsRn34-13" vertex="1">
          <mxGeometry x="-20.25" y="20.25" width="159" height="118.5" as="geometry" />
        </mxCell>
        <mxCell id="0fUxBGmzUrygV9SsRn34-12" value="" style="rounded=0;whiteSpace=wrap;html=1;rotation=-90;fillColor=#d5e8d4;strokeColor=none;" parent="0fUxBGmzUrygV9SsRn34-13" vertex="1">
          <mxGeometry x="44" y="72" width="204" height="60" as="geometry" />
        </mxCell>
        <mxCell id="0fUxBGmzUrygV9SsRn34-14" value="Consumer" style="text;html=1;strokeColor=none;fillColor=none;align=center;verticalAlign=middle;whiteSpace=wrap;rounded=0;" parent="1" vertex="1">
          <mxGeometry x="324" y="218" width="60" height="30" as="geometry" />
        </mxCell>
        <mxCell id="0fUxBGmzUrygV9SsRn34-20" style="edgeStyle=orthogonalEdgeStyle;rounded=0;orthogonalLoop=1;jettySize=auto;html=1;exitX=0.5;exitY=0;exitDx=0;exitDy=0;entryX=0.5;entryY=0;entryDx=0;entryDy=0;" parent="1" source="0fUxBGmzUrygV9SsRn34-15" target="0fUxBGmzUrygV9SsRn34-14" edge="1">
          <mxGeometry relative="1" as="geometry" />
        </mxCell>
        <mxCell id="0fUxBGmzUrygV9SsRn34-21" value="&amp;nbsp; Mock.&amp;nbsp;" style="edgeLabel;html=1;align=center;verticalAlign=middle;resizable=0;points=[];" parent="0fUxBGmzUrygV9SsRn34-20" vertex="1" connectable="0">
          <mxGeometry x="-0.0041" y="-2" relative="1" as="geometry">
            <mxPoint as="offset" />
          </mxGeometry>
        </mxCell>
        <mxCell id="0fUxBGmzUrygV9SsRn34-22" style="edgeStyle=orthogonalEdgeStyle;rounded=0;orthogonalLoop=1;jettySize=auto;html=1;exitX=0.75;exitY=0;exitDx=0;exitDy=0;entryX=0.5;entryY=0;entryDx=0;entryDy=0;" parent="1" source="0fUxBGmzUrygV9SsRn34-15" target="0fUxBGmzUrygV9SsRn34-16" edge="1">
          <mxGeometry relative="1" as="geometry" />
        </mxCell>
        <mxCell id="0fUxBGmzUrygV9SsRn34-23" value="&amp;nbsp; Functional Test&amp;nbsp;&amp;nbsp;" style="edgeLabel;html=1;align=center;verticalAlign=middle;resizable=0;points=[];" parent="0fUxBGmzUrygV9SsRn34-22" vertex="1" connectable="0">
          <mxGeometry x="0.0167" relative="1" as="geometry">
            <mxPoint as="offset" />
          </mxGeometry>
        </mxCell>
        <mxCell id="0fUxBGmzUrygV9SsRn34-15" value="Contract Test" style="text;html=1;strokeColor=none;fillColor=none;align=center;verticalAlign=middle;whiteSpace=wrap;rounded=0;" parent="1" vertex="1">
          <mxGeometry x="527" y="218" width="84" height="30" as="geometry" />
        </mxCell>
        <mxCell id="0fUxBGmzUrygV9SsRn34-16" value="Producer" style="text;html=1;strokeColor=none;fillColor=none;align=center;verticalAlign=middle;whiteSpace=wrap;rounded=0;" parent="1" vertex="1">
          <mxGeometry x="834" y="218" width="60" height="30" as="geometry" />
        </mxCell>
        <mxCell id="0fUxBGmzUrygV9SsRn34-24" value="" style="group" parent="1" vertex="1" connectable="0">
          <mxGeometry x="331" y="541" width="441" height="203.5" as="geometry" />
        </mxCell>
        <mxCell id="0fUxBGmzUrygV9SsRn34-25" value="" style="rounded=0;whiteSpace=wrap;html=1;fillColor=#f8cecc;strokeColor=none;shadow=0;" parent="0fUxBGmzUrygV9SsRn34-24" vertex="1">
          <mxGeometry x="72" y="380.95" width="120" height="71" as="geometry" />
        </mxCell>
        <mxCell id="0fUxBGmzUrygV9SsRn34-26" value="" style="rounded=0;whiteSpace=wrap;html=1;fillColor=#f8cecc;strokeColor=none;shadow=0;" parent="0fUxBGmzUrygV9SsRn34-24" vertex="1">
          <mxGeometry x="72" y="511.95" width="120" height="71" as="geometry" />
        </mxCell>
        <mxCell id="0fUxBGmzUrygV9SsRn34-27" value="" style="rounded=0;whiteSpace=wrap;html=1;rotation=-90;fillColor=#f8cecc;strokeColor=none;shadow=0;" parent="0fUxBGmzUrygV9SsRn34-24" vertex="1">
          <mxGeometry x="124.5" y="446.45" width="203" height="71" as="geometry" />
        </mxCell>
        <mxCell id="0fUxBGmzUrygV9SsRn34-28" value="" style="rounded=0;whiteSpace=wrap;html=1;fillColor=#f8cecc;strokeColor=none;shadow=0;" parent="0fUxBGmzUrygV9SsRn34-24" vertex="1">
          <mxGeometry x="260" y="537.95" width="120" height="45" as="geometry" />
        </mxCell>
        <mxCell id="0fUxBGmzUrygV9SsRn34-32" value="" style="group" parent="0fUxBGmzUrygV9SsRn34-24" vertex="1" connectable="0">
          <mxGeometry x="260" y="378.95" width="176" height="204" as="geometry" />
        </mxCell>
        <mxCell id="0fUxBGmzUrygV9SsRn34-33" value="" style="rounded=0;whiteSpace=wrap;html=1;rotation=-90;fillColor=#d5e8d4;strokeColor=none;" parent="0fUxBGmzUrygV9SsRn34-32" vertex="1">
          <mxGeometry x="-20.25" y="20.25" width="159" height="118.5" as="geometry" />
        </mxCell>
        <mxCell id="0fUxBGmzUrygV9SsRn34-34" value="" style="rounded=0;whiteSpace=wrap;html=1;rotation=-90;fillColor=#d5e8d4;strokeColor=none;" parent="0fUxBGmzUrygV9SsRn34-32" vertex="1">
          <mxGeometry x="44" y="72" width="204" height="60" as="geometry" />
        </mxCell>
        <mxCell id="0fUxBGmzUrygV9SsRn34-29" value="" style="group" parent="1" vertex="1" connectable="0">
          <mxGeometry x="345" y="920.95" width="179.5" height="203" as="geometry" />
        </mxCell>
        <mxCell id="0fUxBGmzUrygV9SsRn34-30" value="" style="rounded=0;whiteSpace=wrap;html=1;rotation=-90;shadow=0;fillColor=#dae8fc;strokeColor=none;" parent="0fUxBGmzUrygV9SsRn34-29" vertex="1">
          <mxGeometry x="-71.5" y="71.5" width="203" height="60" as="geometry" />
        </mxCell>
        <mxCell id="0fUxBGmzUrygV9SsRn34-31" value="" style="rounded=0;whiteSpace=wrap;html=1;shadow=0;fillColor=#dae8fc;strokeColor=none;" parent="0fUxBGmzUrygV9SsRn34-29" vertex="1">
          <mxGeometry x="59.5" y="71.5" width="120" height="60" as="geometry" />
        </mxCell>
        <mxCell id="0fUxBGmzUrygV9SsRn34-35" value="Consumer" style="text;html=1;strokeColor=none;fillColor=none;align=center;verticalAlign=middle;whiteSpace=wrap;rounded=0;" parent="1" vertex="1">
          <mxGeometry x="345" y="883.95" width="60" height="30" as="geometry" />
        </mxCell>
        <mxCell id="0fUxBGmzUrygV9SsRn34-36" style="edgeStyle=orthogonalEdgeStyle;rounded=0;orthogonalLoop=1;jettySize=auto;html=1;exitX=0.5;exitY=0;exitDx=0;exitDy=0;entryX=0.5;entryY=0;entryDx=0;entryDy=0;" parent="1" source="0fUxBGmzUrygV9SsRn34-40" target="0fUxBGmzUrygV9SsRn34-35" edge="1">
          <mxGeometry relative="1" as="geometry" />
        </mxCell>
        <mxCell id="0fUxBGmzUrygV9SsRn34-37" value="&amp;nbsp; Mock.&amp;nbsp;" style="edgeLabel;html=1;align=center;verticalAlign=middle;resizable=0;points=[];" parent="0fUxBGmzUrygV9SsRn34-36" vertex="1" connectable="0">
          <mxGeometry x="-0.0041" y="-2" relative="1" as="geometry">
            <mxPoint as="offset" />
          </mxGeometry>
        </mxCell>
        <mxCell id="0fUxBGmzUrygV9SsRn34-38" style="edgeStyle=orthogonalEdgeStyle;rounded=0;orthogonalLoop=1;jettySize=auto;html=1;exitX=0.75;exitY=0;exitDx=0;exitDy=0;entryX=0.5;entryY=0;entryDx=0;entryDy=0;" parent="1" source="0fUxBGmzUrygV9SsRn34-40" target="0fUxBGmzUrygV9SsRn34-41" edge="1">
          <mxGeometry relative="1" as="geometry" />
        </mxCell>
        <mxCell id="0fUxBGmzUrygV9SsRn34-39" value="&amp;nbsp; Functional Test&amp;nbsp;&amp;nbsp;" style="edgeLabel;html=1;align=center;verticalAlign=middle;resizable=0;points=[];" parent="0fUxBGmzUrygV9SsRn34-38" vertex="1" connectable="0">
          <mxGeometry x="0.0167" relative="1" as="geometry">
            <mxPoint as="offset" />
          </mxGeometry>
        </mxCell>
        <mxCell id="0fUxBGmzUrygV9SsRn34-40" value="Contract Test" style="text;html=1;strokeColor=none;fillColor=none;align=center;verticalAlign=middle;whiteSpace=wrap;rounded=0;" parent="1" vertex="1">
          <mxGeometry x="498.5" y="883.95" width="84" height="30" as="geometry" />
        </mxCell>
        <mxCell id="0fUxBGmzUrygV9SsRn34-41" value="Producer" style="text;html=1;strokeColor=none;fillColor=none;align=center;verticalAlign=middle;whiteSpace=wrap;rounded=0;" parent="1" vertex="1">
          <mxGeometry x="665" y="883.95" width="60" height="30" as="geometry" />
        </mxCell>
      </root>
    </mxGraphModel>
  </diagram>
</mxfile>
